# AST/ASF file generated using VICON BodyLanguage
# -----------------------------------------------
:version 1.10
:name VICON
:units
  mass 1.0
  length 0.45
  angle deg
:documentation
   .ast/.asf automatically generated from VICON data using
   VICON BodyBuilder and BodyLanguage model FoxedUp or BRILLIANT.MOD
:root
   order TX TY TZ RX RY RZ
   axis XYZ
   position 0 0 0  
   orientation 0 0 0 
:bonedata
  begin
     id 1 
     name lhipjoint
     direction 0.635376 -0.686425 0.353719 
     length 2.47244 
     axis 0 0 0  XYZ
  end
  begin
     id 2 
     name lfemur
     direction 0.34202 -0.939693 0  
     length 7.25268  
     axis 0 0 20  XYZ
    dof rx ry rz
    limits (-160.0 20.0)
           (-70.0 70.0)
           (-60.0 70.0)
  end
  begin
     id 3 
     name ltibia
     direction 0.34202 -0.939693 0   
     length 7.6767   
     axis 0 0 20   XYZ
    dof rx
    limits (-10.0 170.0)
  end
  begin
     id 4 
     name lfoot
     direction 0.0803374 -0.220725 0.972022   
     length 2.22945   
     axis -90 7.62852e-016 20   XYZ
    dof rx rz
    limits (-45.0 90.0)
           (-70.0 20.0)
  end
  begin
     id 5 
     name ltoes
     direction 1.53579e-011 -4.21994e-011 1   
     length 1.11848   
     axis -90 7.62852e-016 20   XYZ
    dof rx
    limits (-90.0 20.0)
  end
  begin
     id 6 
     name rhipjoint
     direction -0.664428 -0.664335 0.342336   
     length 2.55466  
     axis 0 0 0  XYZ 
  end
  begin
     id 7 
     name rfemur
     direction -0.34202 -0.939693 0   
     length 6.83172   
     axis 0 0 -20   XYZ
    dof rx ry rz
    limits (-160.0 20.0)
           (-70.0 70.0)
           (-70.0 60.0)
  end
  begin
     id 8 
     name rtibia
     direction -0.34202 -0.939693 0   
     length 7.62692   
     axis 0 0 -20   XYZ
    dof rx
    limits (-10.0 170.0)
 end
 begin
     id 9 
     name rfoot
     direction -0.0949276 -0.260811 0.960711   
     length 2.19684  
     axis -90 -7.62852e-016 -20   XYZ
    dof rx rz
    limits (-45.0 90.0)
           (-20.0 70.0)
  end
  begin
     id 10 
     name rtoes
     direction -1.53543e-011 -4.2183e-011 1   
     length 1.09848   
     axis -90 -7.62852e-016 -20   XYZ
    dof rx
    limits (-90.0 20.0)
  end
  begin
     id 11 
     name lowerback
     direction 0.0118782 0.999815 -0.0151555   
     length 2.15772   
     axis 0 0 0   XYZ
    dof rx ry rz
    limits (-20.0 45.0)
           (-30.0 30.0)
           (-30.0 30.0)
  end
  begin
     id 12 
     name upperback
     direction 0.00130825 0.999065 0.0432113   
     length 2.14863   
     axis 0 0 0   XYZ
    dof rx ry rz
    limits (-20.0 45.0)
           (-30.0 30.0)
           (-30.0 30.0)
  end
  begin
     id 13 
     name thorax
     direction -0.00347005 0.998773 0.0494011   
     length 2.14936   
     axis 0 0 0   XYZ
    dof rx ry rz
    limits (-20.0 45.0)
           (-30.0 30.0)
           (-30.0 30.0)
  end
  begin
     id 14 
     name lowerneck
     direction -0.0262159 0.99424 0.103921   
     length 1.69373   
     axis 0 0 0   XYZ
    dof rx ry rz
    limits (-20.0 45.0)
           (-30.0 30.0)
           (-30.0 30.0)
  end
  begin
     id 15 
     name upperneck
     direction 0.0353511 0.977394 -0.20845   
     length 1.70857   
     axis 0 0 0   XYZ
    dof rx ry rz
    limits (-20.0 45.0)
           (-30.0 30.0)
           (-30.0 30.0)
  end
  begin
     id 16
     name head
     direction 0.0139214 0.996594 -0.0812836  
     length 1.72777  
     axis 0 0 0   XYZ
    dof rx ry rz
    limits (-20.0 45.0)
           (-30.0 30.0)
           (-30.0 30.0)
  end
  begin
     id 17 
     name lclavicle
     direction 0.841247 0.537205 -0.0609508  
     length 3.55371  
     axis 0 0 0   XYZ
    dof ry rz
    limits (-20.0 10.0)
           (0.0 20.0)
  end
  begin
     id 18 
     name lhumerus
     direction 1 -4.48964e-011 1.60116e-018   
     length 4.91377   
     axis -180 -30 -90   XYZ
    dof rx ry rz
    limits (-60.0 90.0)
           (-90.0 90.0)
           (-90.0 90.0)
  end
  begin
     id 19
     name lradius
     direction 1 -4.48989e-011 -8.93847e-027   
     length 3.00291   
     axis -180 -30 -90   XYZ
    dof rx
    limits (-10.0 170.0)
  end
  begin
     id 20
     name lwrist
     direction 1 -4.48932e-011 -7.31504e-027   
     length 1.50145   
     axis 5.74121e-015 90 90   XYZ
    dof ry
    limits (-180.0 0.0)
 end
  begin
     id 21 
     name lhand
     direction 1 -4.48971e-011 -1.46301e-026   
     length 0.450922   
     axis 9.33524e-015 90 90   XYZ
    dof rx rz
    limits (-90.0 90.0)
           (-45.0 45.0)
  end
  begin
     id 22 
     name lfingers
     direction 1 -4.49039e-011 -2.92602e-026   
     length 0.363545   
     axis 1.86705e-014 90 90   XYZ
    dof rx
    limits (0.0 90.0)
  end
  begin
     id 23
     name lthumb
     direction 0.707107 -6.34941e-011 0.707107   
     length 0.52198   
     axis -90 45 2.85299e-015   XYZ
    dof rx rz
    limits (-45.0 45.0)
           (-45.0 45.0)
  end
  begin
     id 24 
     name rclavicle
     direction -0.825079 0.56158 -0.0622297   
     length 3.39909  
     axis 0 0 0   XYZ 
    dof ry rz
    limits (-10.0 20.0)
           (-20.0 0.0)
  end
  begin
     id 25 
     name rhumerus
     direction -1 -4.48965e-011 1.61691e-027  
     length 4.86725   
     axis -180 30 90   XYZ
    dof rx ry rz
    limits (-90.0 60.0)
           (-90.0 90.0)
           (-90.0 90.0)
  end
  begin
     id 26 
     name rradius
     direction -1 -4.48964e-011 -2.25776e-027   
     length 3.17144   
     axis -180 30 90   XYZ
    dof rx
    limits (-10.0 170.0)
  end
  begin
     id 27 
     name rwrist
     direction -1 -4.48961e-011 -7.31504e-027   
     length 1.58572   
     axis 5.74121e-015 -90 -90   XYZ
    dof ry
    limits (-180.0 0.0)
  end
  begin
     id 28
     name rhand
     direction -1 -4.49013e-011 -1.46301e-026   
     length 0.419368   
     axis 9.33524e-015 -90 -90   XYZ
    dof rx rz
    limits (-90.0 90.0)
           (-45.0 45.0)
  end
  begin
     id 29
     name rfingers
     direction -1 -4.489e-011 -2.92602e-026   
     length 0.338105   
     axis 1.86705e-014 -90 -90   XYZ
    dof rx
    limits (0.0 90.0)
  end
  begin
     id 30
     name rthumb
     direction -0.707107 -6.35022e-011 0.707107   
     length 0.485453   
     axis -90 -45 -2.85299e-015   XYZ
    dof rx rz
    limits (-45.0 45.0)
           (-45.0 45.0)
  end
:hierarchy
  begin
    root lhipjoint rhipjoint lowerback
    lhipjoint lfemur
    lfemur ltibia
    ltibia lfoot
    lfoot ltoes
    rhipjoint rfemur
    rfemur rtibia
    rtibia rfoot
    rfoot rtoes
    lowerback upperback
    upperback thorax
    thorax lowerneck lclavicle rclavicle
    lowerneck upperneck
    upperneck head
    lclavicle lhumerus
    lhumerus lradius
    lradius lwrist
    lwrist lhand lthumb
    lhand lfingers
    rclavicle rhumerus
    rhumerus rradius
    rradius rwrist
    rwrist rhand rthumb
    rhand rfingers
  end

#!OML:ASF H:\Swim 2\Project 1\Capture day 1\Session 1\male.ASF
:FULLY-SPECIFIED
:DEGREES
1
root 0.49871 14.341 8.659 105.655 -7.79409 -2.41821
lowerback -9.51119 9.21245 12.9609
upperback -9.54185 11.9134 -11.4613
thorax -0.0649075 5.70418 -18.8004
lowerneck -16.6139 -7.1492 -0.61334
upperneck 43.0027 -11.9768 4.27251
head 19.9691 -3.84482 -0.200869
rclavicle -1.27222e-013 8.54774e-014
rhumerus 61.4836 -23.7731 -6.843
rradius 44.9149
rwrist -42.7606
rhand -28.71 -10.6108
rfingers 7.12502
rthumb -2.07166 -40.5805
lclavicle -1.27222e-013 8.54774e-014
lhumerus 107.78 15.7038 25.0024
lradius 30.703
lwrist 39.2179
lhand -41.7527 -29.3684
lfingers 7.12502
lthumb -14.657 0.0935826
rfemur -83.2359 4.3243 -6.05218
rtibia 49.8218
rfoot 10.009 16.7768
rtoes -4.11291
lfemur -75.9883 16.3553 -44.9554
ltibia 56.5588
lfoot -2.80241 19.2647
ltoes 19.3584
2
root 0.528783 14.3472 8.6514 105.657 -8.0354 -2.23827
lowerback -9.73429 9.16461 12.7323
upperback -9.59941 11.8365 -11.4771
thorax -0.0736683 5.66545 -18.6685
lowerneck -16.7874 -7.16918 -0.694929
upperneck 42.846 -11.8212 3.91934
head 19.8624 -3.84891 -0.332757
rclavicle -7.95139e-014 3.22031e-014
rhumerus 61.7597 -23.795 -6.85221
rradius 44.8716
rwrist -42.7346
rhand -28.7168 -10.6285
rfingers 7.12502
rthumb -2.07818 -40.5981
lclavicle -7.95139e-014 3.22031e-014
lhumerus 107.534 15.9534 24.884
lradius 30.7096
lwrist 39.4024
lhand -41.7229 -29.4223
lfingers 7.12502
lthumb -14.6282 0.0417193
rfemur -82.9367 4.4541 -6.17164
rtibia 50.3073
rfoot 10.6297 17.0904
rtoes -3.79546
lfemur -75.9446 16.751 -45.5928
ltibia 57.0686
lfoot -2.95317 19.3569
ltoes 19.2158
3
root 0.559868 14.3525 8.64138 105.845 -8.17674 -2.12394
lowerback -10.109 9.15088 12.6083
upperback -9.71009 11.7869 -11.4815
thorax -0.0347793 5.63882 -18.5611
lowerneck -16.924 -7.16497 -0.895132
upperneck 42.4757 -11.6348 3.71747
head 19.6361 -3.8547 -0.362277
rclavicle 2.54444e-014 -4.57205e-014
rhumerus 62.1134 -23.8967 -6.77106
rradius 44.8063
rwrist -42.7028
rhand -28.7641 -10.8278
rfingers 7.12502
rthumb -2.12388 -40.7969
lclavicle 2.54444e-014 -4.57205e-014
lhumerus 107.162 16.3126 24.6422
lradius 30.7475
lwrist 39.5162
lhand -41.9087 -29.1555
lfingers 7.12502
lthumb -14.8072 0.29553
rfemur -82.839 4.5838 -6.18763
rtibia 50.7879
rfoot 11.1708 17.3205
rtoes -3.59316
lfemur -76.1662 17.1008 -46.1357
ltibia 57.6489
lfoot -2.77178 19.3879
ltoes 18.3247
4
root 0.593649 14.361 8.6337 105.93 -8.37955 -1.97828
lowerback -10.3885 9.13465 12.4263
upperback -9.79541 11.7484 -11.5059
thorax -0.019187 5.62004 -18.4528
lowerneck -17.032 -7.18724 -1.20934
upperneck 42.0383 -11.4939 3.64147
head 19.3921 -3.88124 -0.31919
rclavicle -9.54166e-014 -6.52014e-014
rhumerus 62.2493 -23.9157 -6.52919
rradius 44.7871
rwrist -42.2934
rhand -29.0874 -10.5953
rfingers 7.12502
rthumb -2.43609 -40.5611
lclavicle -9.54166e-014 -6.52014e-014
lhumerus 107.06 16.7197 24.576
lradius 30.6309
lwrist 39.5343
lhand -41.7947 -29.1657
lfingers 7.12502
lthumb -14.6974 0.293372
rfemur -82.6272 4.66195 -6.16428
rtibia 51.2825
rfoot 11.5222 17.5383
rtoes -3.45397
lfemur -76.135 17.3888 -46.5893
ltibia 58.2059
lfoot -2.91442 19.2663
ltoes 17.4414
5
root 0.626871 14.3686 8.62429 106.037 -8.5714 -1.85824
lowerback -10.6858 9.12367 12.2452
upperback -9.88501 11.716 -11.5254
thorax 0.0028246 5.60481 -18.3352
lowerneck -17.1613 -7.20941 -1.44773
upperneck 41.6407 -11.3538 3.49045
head 19.1683 -3.90276 -0.325315
rclavicle -2.8625e-014 4.81059e-014
rhumerus 62.4831 -23.9772 -6.42475
rradius 44.7312
rwrist -41.8855
rhand -29.2425 -10.5559
rfingers 7.12502
rthumb -2.58587 -40.52
lclavicle -2.8625e-014 4.81059e-014
lhumerus 106.908 17.0657 24.5336
lradius 30.5328
lwrist 39.561
lhand -41.6987 -29.2489
lfingers 7.12502
lthumb -14.6049 0.216829
rfemur -82.4488 4.75426 -6.13554
rtibia 51.7722
rfoot 11.9472 17.7296
rtoes -3.25746
lfemur -76.1604 17.6817 -47.0273
ltibia 58.7844
lfoot -2.92601 19.2034
ltoes 16.9027
6
root 0.661176 14.3777 8.61573 106.112 -8.76658 -1.74852
lowerback -10.9447 9.1128 12.0655
upperback -9.96339 11.6883 -11.5435
thorax 0.0184876 5.59217 -18.2205
lowerneck -17.2981 -7.22872 -1.67024
upperneck 41.2084 -11.2079 3.32455
head 18.9262 -3.92247 -0.339182
rclavicle -4.45278e-014 7.95139e-016
rhumerus 62.7324 -24.0582 -6.36154
rradius 44.6478
rwrist -41.2719
rhand -29.3776 -10.529
rfingers 7.12502
rthumb -2.71636 -40.4915
lclavicle -4.45278e-014 7.95139e-016
lhumerus 106.776 17.4365 24.5002
lradius 30.4111
lwrist 39.5571
lhand -41.6138 -29.349
lfingers 7.12502
lthumb -14.5231 0.122632
rfemur -82.2438 4.84374 -6.06396
rtibia 52.2726
rfoot 12.3171 17.8882
rtoes -3.0665
lfemur -76.1104 17.9554 -47.3908
ltibia 59.3531
lfoot -2.92124 19.1199
ltoes 16.5873
7
root 0.696643 14.3881 8.608 106.164 -8.97137 -1.65753
lowerback -11.1778 9.10478 11.8748
upperback -10.0337 11.6685 -11.561
thorax 0.0306811 5.58442 -18.0996
lowerneck -17.4597 -7.25227 -1.83895
upperneck 40.785 -11.0637 3.09496
head 18.6897 -3.94145 -0.392168
rclavicle -1.27222e-014 6.91771e-014
rhumerus 62.9706 -24.149 -6.27986
rradius 44.5466
rwrist -40.4457
rhand -29.5133 -10.5154
rfingers 7.12502
rthumb -2.84747 -40.4761
lclavicle -1.27222e-014 6.91771e-014
lhumerus 106.662 17.8166 24.4831
lradius 30.2637
lwrist 39.5216
lhand -41.5497 -29.468
lfingers 7.12502
lthumb -14.4613 0.00814767
rfemur -82.0209 4.92695 -5.95781
rtibia 52.7709
rfoot 12.6534 18.0183
rtoes -2.8674
lfemur -76.0069 18.2156 -47.7019
ltibia 59.9213
lfoot -2.90349 19.0283
ltoes 16.5048
8
root 0.733073 14.4001 8.60101 106.193 -9.19503 -1.58891
lowerback -11.3816 9.09637 11.6594
upperback -10.0932 11.6532 -11.5774
thorax 0.0369441 5.58013 -17.964
lowerneck -17.642 -7.2803 -1.9539
upperneck 40.3718 -10.9277 2.81534
head 18.4605 -3.96091 -0.478448
rclavicle -1.30403e-013 1.24042e-013
rhumerus 63.203 -24.254 -6.17001
rradius 44.4122
rwrist -39.3661
rhand -29.6354 -10.508
rfingers 7.12502
rthumb -2.96536 -40.4672
lclavicle -1.30403e-013 1.24042e-013
lhumerus 106.557 18.194 24.4866
lradius 30.0888
lwrist 39.4364
lhand -41.5302 -29.5496
lfingers 7.12502
lthumb -14.4425 -0.0721965
rfemur -81.7814 5.00329 -5.82682
rtibia 53.2699
rfoot 12.9629 18.1265
rtoes -2.66211
lfemur -75.8498 18.4636 -47.973
ltibia 60.4826
lfoot -2.83223 18.9448
ltoes 16.7051
9
root 0.770454 14.413 8.59435 106.214 -9.42331 -1.5392
lowerback -11.5716 9.08956 11.4335
upperback -10.1476 11.6429 -11.5895
thorax 0.0410057 5.57895 -17.8172
lowerneck -17.8714 -7.31989 -1.97073
upperneck 40.0093 -10.8004 2.41548
head 18.258 -3.98201 -0.638717
rclavicle 1.94014e-013 -1.08934e-013
rhumerus 63.4237 -24.3709 -6.00368
rradius 44.2287
rwrist -38.0025
rhand -29.7456 -10.4713
rfingers 7.12502
rthumb -3.07179 -40.4289
lclavicle 1.94014e-013 -1.08934e-013
lhumerus 106.412 18.6133 24.4199
lradius 29.9183
lwrist 39.3896
lhand -41.5604 -29.5739
lfingers 7.12502
lthumb -14.4716 -0.0985655
rfemur -81.5403 5.07088 -5.66353
rtibia 53.7673
rfoot 13.2621 18.2137
rtoes -2.44326
lfemur -75.6631 18.6945 -48.198
ltibia 61.0393
lfoot -2.72271 18.8838
ltoes 17.0257
10
root 0.808689 14.4268 8.58812 106.219 -9.66065 -1.50623
lowerback -11.7433 9.08399 11.1815
upperback -10.1942 11.6384 -11.5952
thorax 0.0408265 5.58194 -17.6465
lowerneck -18.104 -7.36958 -1.96783
upperneck 39.6472 -10.6957 2.01195
head 18.0601 -4.00979 -0.806281
rclavicle -6.67916e-014 2.8625e-014
rhumerus 63.6068 -24.4917 -5.73993
rradius 43.9909
rwrist -36.3482
rhand -29.8488 -10.3666
rfingers 7.12502
rthumb -3.17144 -40.3228
lclavicle -6.67916e-014 2.8625e-014
lhumerus 106.238 19.0495 24.3056
lradius 29.7391
lwrist 39.3657
lhand -41.6257 -29.5202
lfingers 7.12502
lthumb -14.5346 -0.0493399
rfemur -81.2897 5.13066 -5.47417
rtibia 54.2624
rfoot 13.5507 18.2858
rtoes -2.16839
lfemur -75.4388 18.9098 -48.3819
ltibia 61.5892
lfoot -2.51013 18.8167
ltoes 17.8798
11
root 0.847621 14.4412 8.58213 106.219 -9.8937 -1.48908
lowerback -11.9112 9.08201 10.9111
upperback -10.2373 11.6413 -11.5909
thorax 0.0402402 5.58965 -17.4504
lowerneck -18.3297 -7.43231 -1.95488
upperneck 39.2907 -10.6197 1.61763
head 17.8689 -4.04624 -0.974563
rclavicle 9.54166e-015 -8.74653e-015
rhumerus 63.7638 -24.618 -5.39975
rradius 43.6825
rwrist -34.4057
rhand -29.9206 -10.1648
rfingers 7.12502
rthumb -3.24078 -40.1199
lclavicle 9.54166e-015 -8.74653e-015
lhumerus 106.062 19.4586 24.2069
lradius 29.5214
lwrist 39.3233
lhand -41.6394 -29.4356
lfingers 7.12502
lthumb -14.5478 0.0342417
rfemur -81.0432 5.18511 -5.25259
rtibia 54.754
rfoot 13.8502 18.3417
rtoes -1.86573
lfemur -75.1959 19.1043 -48.5147
ltibia 62.1328
lfoot -2.21128 18.7584
ltoes 19.1604
12
root 0.887184 14.4559 8.57607 106.216 -10.1203 -1.48406
lowerback -12.0703 9.07865 10.6332
upperback -10.2787 11.6441 -11.577
thorax 0.0335086 5.59717 -17.2395
lowerneck -18.5514 -7.50198 -1.93461
upperneck 38.911 -10.5569 1.22244
head 17.6672 -4.08869 -1.14406
rclavicle -7.31528e-014 1.90833e-014
rhumerus 63.914 -24.7532 -5.01318
rradius 43.2971
rwrist -32.2025
rhand -29.9254 -9.88277
rfingers 7.12502
rthumb -3.2454 -39.8378
lclavicle -7.31528e-014 1.90833e-014
lhumerus 104.846 20.5658 22.8287
lradius 30.3106
lwrist 40.6323
lhand -41.831 -29.0285
lfingers 7.12502
lthumb -14.7323 0.428015
rfemur -80.8054 5.23329 -5.00187
rtibia 55.2459
rfoot 14.1524 18.375
rtoes -1.56057
lfemur -74.9367 19.28 -48.6014
ltibia 62.6669
lfoot -1.85025 18.706
ltoes 20.7613
13
root 0.927552 14.4709 8.57005 106.218 -10.3409 -1.49589
lowerback -12.2309 9.07648 10.3493
upperback -10.3201 11.6496 -11.5543
thorax 0.025664 5.60619 -17.0136
lowerneck -18.7459 -7.56993 -1.93168
upperneck 38.4644 -10.4985 0.863499
head 17.4307 -4.13452 -1.29002
rclavicle -7.31528e-014 -5.56597e-015
rhumerus 64.0794 -24.8984 -4.6357
rradius 42.836
rwrist -29.7518
rhand -29.8438 -9.49468
rfingers 7.12502
rthumb -3.16658 -39.4509
lclavicle -7.31528e-014 -5.56597e-015
lhumerus 103.592 21.6796 21.3261
lradius 30.9566
lwrist 42.0347
lhand -41.9591 -28.5904
lfingers 7.12502
lthumb -14.8558 0.857008
rfemur -80.588 5.27941 -4.73486
rtibia 55.7413
rfoot 14.4553 18.3831
rtoes -1.27543
lfemur -74.6731 19.4407 -48.6551
ltibia 63.1885
lfoot -1.49574 18.6861
ltoes 22.4739
